<?xml version="1.0" standalone="no"?>
<!DOCTYPE svg PUBLIC "-//W3C//DTD SVG 20010904//EN"
 "http://www.w3.org/TR/2001/REC-SVG-20010904/DTD/svg10.dtd">
<svg version="1.0" xmlns="http://www.w3.org/2000/svg"
 width="260.000000pt" height="260.000000pt" viewBox="0 0 260.000000 260.000000"
 preserveAspectRatio="xMidYMid meet">
<metadata>
Created by potrace 1.11, written by Peter Selinger 2001-2013
</metadata>
<g transform="translate(0.000000,260.000000) scale(0.100000,-0.100000)"
fill="#000000" stroke="none">
<path d="M1440 2360 c8 -5 20 -10 25 -10 6 0 3 5 -5 10 -8 5 -19 10 -25 10 -5
0 -3 -5 5 -10z"/>
<path d="M1540 2302 c0 -11 141 -122 155 -122 4 0 -10 14 -31 30 -22 17 -50
40 -64 53 -42 38 -60 50 -60 39z"/>
<path d="M1755 2111 c33 -34 81 -78 108 -98 59 -46 63 -68 10 -58 -55 11 -66
13 -200 29 -67 8 -139 19 -160 25 -21 5 -83 12 -138 16 -55 4 -114 11 -130 16
-59 18 -415 58 -438 50 -17 -7 -18 -10 -7 -14 15 -5 177 -26 395 -52 61 -7
142 -18 180 -24 125 -20 307 -42 450 -56 77 -7 155 -17 173 -20 21 -5 32 -4
32 4 0 6 -17 14 -38 17 -45 7 -67 23 -178 128 -102 97 -142 122 -59 37z"/>
<path d="M604 2065 c-3 -25 -4 -49 0 -52 3 -4 6 7 6 23 0 16 7 40 16 52 13 19
13 22 0 22 -10 0 -17 -15 -22 -45z"/>
<path d="M675 2100 c27 -12 35 -12 35 0 0 6 -12 10 -27 9 -25 0 -26 -1 -8 -9z"/>
<path d="M740 2096 c0 -2 7 -7 16 -10 8 -3 12 -2 9 4 -6 10 -25 14 -25 6z"/>
<path d="M578 1931 c-10 -40 -18 -80 -18 -87 0 -8 -4 -14 -9 -14 -5 0 -9 -24
-10 -52 -2 -87 -12 -163 -24 -170 -13 -8 -175 -3 -184 5 -3 3 -14 -3 -25 -13
-19 -18 -20 -36 -27 -399 -3 -209 -3 -377 0 -373 4 4 9 144 13 312 6 278 13
429 21 438 4 4 64 -29 174 -95 65 -39 190 -114 232 -138 10 -5 44 -26 76 -45
32 -19 62 -37 67 -39 4 -2 56 -32 115 -67 58 -35 113 -68 121 -73 13 -7 10
-14 -14 -40 -16 -17 -37 -33 -47 -36 -18 -6 -34 -35 -19 -35 5 0 17 8 27 18
10 10 37 31 61 46 48 33 51 42 20 51 -13 4 -32 15 -43 25 -11 9 -66 44 -123
76 -57 33 -120 69 -140 81 -20 13 -65 40 -100 60 -35 21 -71 43 -80 48 -9 6
-39 23 -65 39 l-48 29 6 76 c4 42 11 83 15 91 4 8 13 62 19 120 7 58 16 117
22 131 6 15 9 44 7 65 -3 36 -4 34 -20 -35z m-60 -371 c1 -14 -2 -32 -8 -40
-8 -13 -14 -13 -45 4 -20 11 -51 30 -68 43 l-32 24 75 -3 c72 -3 75 -4 78 -28z"/>
<path d="M2065 1921 c-2 -5 37 -11 87 -15 51 -4 94 -8 95 -10 12 -11 -44 -346
-62 -375 -12 -20 13 -11 66 24 30 19 57 35 61 35 5 0 9 -42 10 -92 l2 -93 3
80 c5 100 2 110 -47 163 -45 49 -47 65 -25 157 21 88 20 114 -7 119 -46 10
-178 14 -183 7z m209 -312 c-12 -20 -34 -8 -34 18 0 25 1 26 20 8 11 -10 17
-22 14 -26z m-19 -39 c-20 -22 -31 -20 -22 5 4 8 14 15 23 15 16 0 16 -2 -1
-20z"/>
<path d="M1050 1830 c0 -62 -3 -82 -15 -86 -21 -8 -19 -26 3 -22 14 3 18 18
22 88 l5 85 46 3 c63 4 73 -10 60 -84 -13 -70 -14 -84 -2 -84 12 0 25 132 16
159 -6 18 -14 21 -71 21 l-64 0 0 -80z"/>
<path d="M1348 1873 c29 -4 32 -8 32 -36 0 -28 -5 -55 -21 -116 -2 -8 4 -17
14 -19 15 -3 17 1 11 23 -4 15 -1 52 6 82 15 62 8 74 -45 71 l-30 -1 33 -4z"/>
<path d="M1481 1834 c0 -11 3 -14 6 -6 3 7 2 16 -1 19 -3 4 -6 -2 -5 -13z"/>
<path d="M1658 1784 c-4 -68 -15 -85 -49 -77 -10 3 -19 0 -19 -6 0 -6 17 -11
40 -11 l40 0 0 80 c0 44 -2 80 -4 80 -2 0 -6 -30 -8 -66z"/>
<path d="M826 1779 c-17 -21 -38 -39 -48 -39 -15 0 -18 -8 -18 -46 0 -41 -2
-45 -21 -39 -17 6 -20 3 -17 -17 2 -16 -2 -23 -14 -23 -10 0 -23 -6 -30 -13
-9 -9 -5 -18 20 -40 40 -36 40 -46 2 -62 -16 -7 -34 -18 -41 -26 -21 -26 19
-27 69 -3 l48 24 47 -29 c67 -41 105 -21 52 28 -14 13 -25 27 -25 32 0 5 18
17 40 26 24 10 40 23 40 33 0 14 -7 16 -41 10 -40 -7 -40 -6 -29 15 6 12 9 32
6 43 -2 12 2 31 10 41 19 26 18 46 -2 46 -13 0 -15 7 -11 35 8 48 -3 50 -37 4z"/>
<path d="M1300 1794 c0 -8 5 -12 10 -9 6 4 8 11 5 16 -9 14 -15 11 -15 -7z"/>
<path d="M1568 1763 c-3 -46 -4 -48 -38 -54 l-35 -6 43 -2 42 -1 0 55 c0 67
-8 72 -12 8z"/>
<path d="M1244 1712 c5 -8 66 -4 66 4 0 2 -16 4 -36 4 -19 0 -33 -4 -30 -8z"/>
<path d="M1470 1710 c0 -5 5 -10 11 -10 5 0 7 5 4 10 -3 6 -8 10 -11 10 -2 0
-4 -4 -4 -10z"/>
<path d="M1810 1619 c-7 -39 -8 -75 -4 -79 5 -5 38 -18 73 -29 l65 -20 61 24
c34 14 66 25 72 25 6 0 16 7 23 15 10 12 3 22 -37 61 l-48 46 -65 -5 c-54 -5
-70 -2 -90 14 -14 10 -28 19 -32 19 -3 0 -12 -32 -18 -71z"/>
<path d="M1327 1592 c-9 -62 -4 -74 28 -66 20 5 25 1 31 -20 5 -20 0 -35 -20
-60 -14 -19 -26 -42 -26 -52 0 -10 13 0 35 29 50 65 44 117 -11 117 -21 0 -23
6 -26 53 l-3 52 -8 -53z"/>
<path d="M1645 1590 c-3 -5 -1 -10 4 -10 6 0 11 5 11 10 0 6 -2 10 -4 10 -3 0
-8 -4 -11 -10z"/>
<path d="M1000 1582 c0 -6 4 -14 10 -17 6 -4 7 -41 3 -96 l-6 -90 69 3 69 3 7
65 c4 36 9 74 10 84 2 10 -3 21 -9 23 -10 3 -13 -13 -13 -62 0 -87 -10 -105
-59 -105 -21 0 -43 6 -49 13 -6 7 -8 42 -5 84 6 80 16 91 73 78 19 -4 30 -3
30 4 0 6 -21 11 -49 11 -27 0 -56 3 -65 6 -9 3 -16 1 -16 -4z"/>
<path d="M1225 1553 c34 -8 36 -17 19 -97 -14 -68 -14 -99 0 -85 8 8 27 169
21 179 -3 6 -18 9 -33 9 -21 -1 -22 -2 -7 -6z"/>
<path d="M1450 1498 c0 -62 5 -60 13 5 4 28 3 47 -3 47 -6 0 -10 -23 -10 -52z"/>
<path d="M1544 1463 l-9 -78 -35 0 c-26 0 -37 6 -46 23 -10 20 -12 21 -18 6
-13 -33 12 -44 103 -44 47 0 92 4 100 9 18 11 29 161 13 161 -6 0 -9 -7 -6
-15 9 -22 -18 -137 -33 -142 -7 -3 -24 -2 -38 1 -24 6 -25 8 -18 81 8 99 -2
97 -13 -2z"/>
<path d="M2119 1479 c-23 -19 -23 -20 -2 -10 12 6 25 16 28 21 10 16 -1 12
-26 -11z"/>
<path d="M2020 1420 c-8 -5 -10 -10 -5 -10 6 0 17 5 25 10 8 5 11 10 5 10 -5
0 -17 -5 -25 -10z"/>
<path d="M1940 1380 c-8 -5 -11 -12 -8 -15 4 -4 17 0 30 9 24 17 5 23 -22 6z"/>
<path d="M1895 1351 c-6 -5 -34 -22 -63 -37 -29 -16 -69 -39 -90 -51 -20 -12
-50 -29 -65 -38 -16 -9 -26 -19 -23 -22 3 -3 11 -1 18 4 7 6 54 32 103 59 50
26 95 52 100 56 6 5 19 15 30 23 11 8 15 15 10 15 -6 0 -15 -4 -20 -9z"/>
<path d="M2310 830 c0 -315 -3 -440 -11 -440 -6 0 -32 22 -58 48 -25 26 -77
75 -115 107 -39 33 -138 128 -220 210 -89 88 -200 187 -269 239 -65 48 -121
94 -124 102 -3 8 -14 14 -24 14 -10 0 -33 9 -51 20 -18 11 -44 20 -58 19 -20
0 -16 -5 25 -26 73 -37 150 -89 206 -139 27 -24 54 -44 59 -44 12 0 82 -64
235 -217 73 -72 163 -158 201 -191 90 -78 146 -132 165 -160 11 -14 22 -20 33
-16 14 6 16 49 16 460 0 250 -2 454 -5 454 -3 0 -5 -198 -5 -440z"/>
<path d="M1608 1183 c-10 -2 -18 -9 -18 -14 0 -6 10 -5 23 2 37 20 36 23 -5
12z"/>
<path d="M975 990 c-10 -11 -13 -20 -8 -20 13 0 38 29 31 35 -3 3 -13 -4 -23
-15z"/>
<path d="M940 960 c0 -6 -11 -15 -25 -20 -14 -5 -25 -14 -25 -20 0 -6 14 -2
30 10 26 19 40 40 25 40 -3 0 -5 -5 -5 -10z"/>
<path d="M761 795 c-35 -36 -60 -65 -56 -65 5 0 36 29 70 65 35 36 60 65 56
65 -4 0 -36 -29 -70 -65z"/>
<path d="M281 785 c0 -16 -4 -41 -6 -55 l-6 -25 11 25 c6 13 9 38 7 55 l-4 30
-2 -30z"/>
<path d="M649 683 c-13 -17 -13 -17 6 -3 11 8 22 16 24 17 2 2 0 3 -6 3 -6 0
-17 -8 -24 -17z"/>
<path d="M574 616 c-10 -8 -17 -17 -14 -19 3 -3 14 1 24 9 11 7 17 16 15 19
-3 3 -14 -2 -25 -9z"/>
<path d="M270 447 l0 -127 43 1 c23 1 34 3 25 6 -24 6 -23 15 7 47 14 15 25
29 25 31 0 11 -37 -12 -54 -32 -10 -13 -21 -22 -24 -19 -3 3 -7 52 -10 108 -2
57 -6 105 -8 107 -2 2 -4 -53 -4 -122z"/>
<path d="M409 453 c-13 -16 -12 -17 4 -4 16 13 21 21 13 21 -2 0 -10 -8 -17
-17z"/>
<path d="M1655 340 c-4 -6 3 -10 14 -10 25 0 27 6 6 13 -8 4 -17 2 -20 -3z"/>
<path d="M1960 340 c0 -5 11 -10 25 -10 14 0 25 5 25 10 0 6 -11 10 -25 10
-14 0 -25 -4 -25 -10z"/>
<path d="M2110 339 c0 -5 5 -7 10 -4 6 3 10 8 10 11 0 2 -4 4 -10 4 -5 0 -10
-5 -10 -11z"/>
<path d="M2180 340 c0 -5 15 -10 34 -10 19 0 38 5 41 10 4 6 -10 10 -34 10
-23 0 -41 -4 -41 -10z"/>
<path d="M438 323 c34 -2 88 -2 120 0 31 2 3 3 -63 3 -66 0 -92 -1 -57 -3z"/>
<path d="M663 323 c20 -2 54 -2 75 0 20 2 3 4 -38 4 -41 0 -58 -2 -37 -4z"/>
<path d="M848 323 c29 -2 74 -2 100 0 26 2 2 3 -53 3 -55 0 -76 -1 -47 -3z"/>
</g>
</svg>
